<?xml version="1.0" encoding="UTF-8" standalone="no"?>
<!DOCTYPE svg PUBLIC "-//W3C//DTD SVG 1.1//EN" "http://www.w3.org/Graphics/SVG/1.1/DTD/svg11.dtd">
<svg width="100%" height="100%" viewBox="0 0 342 403" version="1.1" xmlns="http://www.w3.org/2000/svg" xmlns:xlink="http://www.w3.org/1999/xlink" xml:space="preserve" xmlns:serif="http://www.serif.com/" style="fill-rule:evenodd;clip-rule:evenodd;stroke-linejoin:round;stroke-miterlimit:2;">
    <g transform="matrix(1,0,0,1,-85.26,-54.75)">
        <path d="M343.81,233.19L383.39,233.24C383.968,233.245 384.44,233.713 384.44,234.28L384.5,276.06C384.5,276.439 384.811,276.75 385.19,276.75L401.83,276.75C402.198,276.75 402.5,277.052 402.5,277.42L402.5,387.73C402.501,388.118 402.713,388.472 403.05,388.65L426.03,400.79C426.472,401.016 426.751,401.477 426.75,401.98L426.75,451.84C426.75,452.202 426.452,452.5 426.09,452.5L417.82,452.45C417.54,452.45 417.31,452.22 417.31,451.94L417.25,408.1C417.25,407.382 416.853,406.719 416.22,406.38L393.68,394.47C393.262,394.248 393,393.817 393,393.35L393,381.91C393,381.548 392.698,381.25 392.33,381.25L376.07,381.19C375.785,381.19 375.55,380.964 375.55,380.69L375.51,372.39C375.51,372.388 375.51,372.386 375.51,372.385C375.507,372.034 375.808,371.743 376.175,371.74C376.177,371.74 376.178,371.74 376.18,371.74L392.32,371.58C392.591,371.58 392.815,371.347 392.82,371.06L393,287.2C393,286.679 392.567,286.25 392.04,286.25L364.62,286.25C364.143,286.25 363.75,286.643 363.75,287.12L363.75,388.12C363.75,388.443 363.917,388.743 364.19,388.91L384.01,401.05C384.278,401.218 384.441,401.506 384.44,401.81L384.44,456.55C384.44,456.934 384.119,457.25 383.73,457.25L188.99,457.25C188.447,457.25 188,456.803 188,456.26L188,432.07C188,431.757 187.743,431.5 187.43,431.5L95.55,431.56C95.274,431.559 95.041,431.775 95.02,432.05C94.607,437.13 94.573,442.147 94.92,447.1C94.946,447.465 95.254,447.751 95.62,447.75L120.94,447.75C121.247,447.75 121.5,448.003 121.5,448.31L121.5,456.59C121.5,456.591 121.5,456.592 121.5,456.592C121.499,456.953 121.201,457.25 120.84,457.25L85.94,457.07C85.66,457.07 85.43,456.84 85.43,456.56L85.26,420.32C85.26,419.819 85.488,419.339 85.88,419.01L98.86,408.04C99.108,407.83 99.25,407.519 99.25,407.19L99.25,270.81C99.25,270.225 99.432,269.652 99.77,269.17C102.963,264.683 106.07,260.373 109.09,256.24C113.363,250.387 116.823,246.38 119.47,244.22C123.397,241.033 127.803,238.7 132.69,237.22C135.877,236.253 140.47,235.733 146.47,235.66C164.23,235.433 181.99,235.31 199.75,235.29C215.843,235.277 227.963,241.933 236.11,255.26C236.703,256.24 237,256.157 237,255.01L237,234.16C237,233.661 237.411,233.25 237.91,233.25L333.11,233.25C333.324,233.25 333.5,233.074 333.5,232.86L333.5,140.37C333.5,139.893 333.107,139.5 332.63,139.5L329.37,139.5C328.893,139.5 328.5,139.893 328.5,140.37L328.5,223.34C328.5,223.834 328.071,224.24 327.55,224.24L319.7,224.18C319.316,224.18 319,223.882 319,223.52L319,130.87C319,130.393 319.393,130 319.87,130L353.99,130C353.992,130 353.993,130 353.995,130C354.538,129.997 354.983,129.557 354.98,129.025C354.98,129.023 354.98,129.022 354.98,129.02L354.83,112.44C354.83,112.16 354.595,111.93 354.31,111.93L319.92,111.76C319.448,111.76 319.06,111.381 319.06,110.92L319,64.94C319,64.561 318.689,64.25 318.31,64.25L301.6,64.25C301.135,64.25 300.752,64.632 300.75,65.097C300.75,65.098 300.75,65.099 300.75,65.1L300.75,111.23C300.75,111.515 300.515,111.75 300.23,111.75L265.74,111.75C265.737,111.75 265.734,111.75 265.731,111.75C265.192,111.755 264.75,112.2 264.75,112.74L264.75,129.33C264.75,129.698 265.052,130 265.42,130L299.98,130C300.265,130 300.5,130.235 300.5,130.52L300.5,223.34C300.5,223.342 300.5,223.344 300.5,223.346C300.497,223.843 300.087,224.25 299.59,224.25L292.09,224.25C291.492,224.25 291,223.758 291,223.16L291,140.37C291,139.893 290.607,139.5 290.13,139.5L255.92,139.5C255.552,139.5 255.25,139.198 255.25,138.83L255.25,102.75C255.25,102.476 255.476,102.25 255.75,102.25L290.24,102.25C290.761,102.25 291.19,101.821 291.19,101.3L291.25,55.26C291.25,54.98 291.48,54.75 291.76,54.75L342.6,54.75C342.957,54.75 343.25,55.039 343.25,55.39L343.19,101.45C343.19,101.889 343.547,102.25 343.98,102.25L378.32,102.25C378.83,102.25 379.25,102.67 379.25,103.18L379.19,138.79C379.19,139.179 378.865,139.5 378.47,139.5L343.98,139.56C343.98,139.56 343.979,139.56 343.979,139.56C343.579,139.561 343.25,139.89 343.25,140.29L343.31,232.7C343.31,232.969 343.536,233.19 343.81,233.19ZM333.52,64.88C333.52,64.54 333.24,64.26 332.9,64.26L329.12,64.26C328.78,64.26 328.5,64.54 328.5,64.88L328.5,101.6C328.5,101.94 328.78,102.22 329.12,102.22L332.9,102.22C333.24,102.22 333.52,101.94 333.52,101.6L333.52,64.88ZM369.54,112.38C369.54,112.045 369.265,111.77 368.93,111.77L365.11,111.77C364.775,111.77 364.5,112.045 364.5,112.38L364.5,129.38C364.5,129.715 364.775,129.99 365.11,129.99L368.93,129.99C369.265,129.99 369.54,129.715 369.54,129.38L369.54,112.38ZM335.5,243.4C335.5,243.043 335.207,242.75 334.85,242.75L247.15,242.75C246.793,242.75 246.5,243.043 246.5,243.4L246.5,276.1C246.5,276.457 246.793,276.75 247.15,276.75L334.85,276.75C335.207,276.75 335.5,276.457 335.5,276.1L335.5,243.4ZM374.722,243.444C374.721,243.055 374.401,242.735 374.012,242.735C374.011,242.735 374.011,242.735 374.01,242.735L345.69,242.785C345.301,242.785 344.982,243.106 344.982,243.495C344.982,243.495 344.982,243.496 344.982,243.496L345.039,276.076C345.039,276.465 345.359,276.785 345.748,276.785C345.749,276.785 345.749,276.785 345.75,276.785L374.07,276.735C374.459,276.735 374.778,276.414 374.778,276.025C374.778,276.025 374.778,276.024 374.778,276.024L374.722,243.444ZM114.55,283.72C120.897,285.867 123.88,290.627 123.5,298C123.327,301.42 124.52,303.393 127.08,303.92C129.053,304.327 130.65,303.813 131.87,302.38C133.043,300.993 133.503,299.117 133.25,296.75C132.983,294.283 133.013,291.203 133.34,287.51C133.62,284.35 134.263,281.947 135.27,280.3C136.67,278.013 138.663,276.33 141.25,275.25C145.737,273.377 149.967,273.897 153.94,276.81C156.767,278.883 158.48,281.59 159.08,284.93C159.2,285.59 159.25,288.64 159.23,294.08C159.143,313.073 159.223,332.063 159.47,351.05C159.497,352.897 159.837,354.277 160.49,355.19C161.53,356.643 162.967,357.283 164.8,357.11C166.193,356.977 167.34,356.457 168.24,355.55C169.247,354.543 169.75,353.277 169.75,351.75L169.75,245.72C169.75,245.424 169.506,245.18 169.21,245.18C162.13,245.24 155.19,245.267 148.39,245.26C141.89,245.26 137.183,245.727 134.27,246.66C128.99,248.353 124.713,251.363 121.44,255.69C117.373,261.057 113.54,266.287 109.94,271.38C109.173,272.46 108.797,273.567 108.81,274.7L108.89,282.81C108.89,282.81 108.89,282.81 108.89,282.81C108.895,283.085 109.143,283.306 109.44,283.3C109.44,283.3 109.44,283.3 109.44,283.3C110.213,283.287 110.987,283.283 111.76,283.29C112.8,283.297 113.73,283.44 114.55,283.72ZM203.56,252.19C196.807,246.423 188.887,244.19 179.8,245.49C179.521,245.53 179.311,245.774 179.31,246.06C179.243,279.793 179.223,313.53 179.25,347.27C179.25,351.663 178.953,354.787 178.36,356.64C177.267,360.06 175.267,362.663 172.36,364.45C168.513,366.803 164.32,367.273 159.78,365.86C155.66,364.573 152.783,361.897 151.15,357.83C150.263,355.603 149.813,351.947 149.8,346.86C149.767,327.247 149.73,307.63 149.69,288.01C149.69,286.99 149.553,286.21 149.28,285.67C148.86,284.85 148.23,284.29 147.39,283.99C146.263,283.597 145.223,283.753 144.27,284.46C143.303,285.18 142.813,286.277 142.8,287.75C142.767,291.163 142.77,294.58 142.81,298C142.883,304.66 139.98,309.41 134.1,312.25C130.833,313.83 127.967,314.247 125.5,313.5C117.253,311.013 113.4,305.347 113.94,296.5C114.113,293.653 113.083,292.47 110.85,292.95C109.617,293.21 109,293.973 109,295.24L109,402.92C109,403.377 109.378,403.755 109.84,403.76L156.07,403.93C156.36,403.929 156.615,404.138 156.68,404.43C157.013,405.95 157.15,407.49 157.09,409.05C157.083,409.177 157.107,409.967 157.16,411.42C157.227,413.013 156.44,413.747 154.8,413.62C153.807,413.54 153.267,413.5 153.18,413.5C138.053,413.467 122.927,413.487 107.8,413.56C107.483,413.56 107.172,413.673 106.92,413.88L98.06,421.16C97.58,421.553 97.653,421.75 98.28,421.75L187.32,421.81C187.6,421.81 187.83,421.584 187.83,421.31L187.97,402.81C187.977,401.885 188.455,401.035 189.23,400.57L208.41,388.91C208.776,388.686 209,388.28 209,387.84L209,372.67C209.001,372.134 209.471,371.691 210.05,371.68L218.69,371.5C218.966,371.495 219.19,371.243 219.19,370.94L219.25,273.71C219.25,273.13 219.076,272.565 218.75,272.09C216.817,269.263 214.993,266.663 213.28,264.29C213.227,264.223 212.14,262.623 210.02,259.49C208.1,256.657 205.947,254.223 203.56,252.19ZM220.59,251.65C218.25,249.797 215.72,248.247 213,247C212.2,246.633 212.097,246.82 212.69,247.56C218.043,254.287 223.147,261.203 228,268.31C229.047,269.837 229.32,271.863 228.82,274.39C228.513,275.97 229.237,276.763 230.99,276.77L235.94,276.78C236.509,276.78 236.989,276.361 237.04,275.82C237.107,275.147 237.07,274.417 236.93,273.63C236.817,272.983 236.527,272.327 236.06,271.66C233.007,267.313 229.99,262.947 227.01,258.56C225.217,255.933 223.077,253.63 220.59,251.65ZM322.94,353.44C316.333,359.027 309.79,359.277 303.31,354.19C301.617,352.857 300.317,351.017 299.41,348.67C298.81,347.103 298.49,344.947 298.45,342.2C298.203,324.173 298.14,305.793 298.26,287.06C298.26,286.616 297.899,286.25 297.46,286.25L229.77,286.25C229.381,286.25 229.06,286.566 229.06,286.95L229,371.19C229,371.497 229.253,371.75 229.56,371.75L333.18,371.75C333.767,371.75 334.25,371.267 334.25,370.68L334.25,334.95C334.25,334.89 334.27,334.427 334.31,333.56C334.37,332.02 334.037,330.56 333.31,329.18C332.51,327.673 331.32,327.23 329.74,327.85C327.6,328.683 326.77,330.4 327.25,333C327.47,334.213 327.447,337.283 327.18,342.21C327.047,344.717 326.727,346.71 326.22,348.19C325.427,350.51 324.333,352.26 322.94,353.44ZM310.18,347.31C312.7,348.437 314.65,348.247 316.03,346.74C316.863,345.827 317.36,344.253 317.52,342.02C317.713,339.253 317.81,336.48 317.81,333.7C317.81,330.2 318.07,327.77 318.59,326.41C319.523,323.997 321.143,322.013 323.45,320.46C326.01,318.74 328.703,317.983 331.53,318.19C334.183,318.39 336.617,319.39 338.83,321.19C342.11,323.863 343.75,327.55 343.75,332.25L343.75,394.03C343.75,396.023 343.96,397.467 344.38,398.36C345.147,399.993 346.457,400.893 348.31,401.06C349.67,401.187 350.9,400.887 352,400.16C353.333,399.273 354,398.053 354,396.5C354.033,359.853 354.013,323.337 353.94,286.95C353.94,286.566 353.624,286.25 353.24,286.25L308.7,286.31C308.316,286.31 308,286.631 308,287.02L308,343.95C308,345.537 308.727,346.657 310.18,347.31ZM374.46,406.43L363.75,399.95C363.742,399.945 363.734,399.941 363.725,399.937C363.467,399.804 363.145,399.907 363.012,400.166C363.008,400.174 363.004,400.182 363,400.19C359.7,407.63 354.64,411.06 347.82,410.48C344.047,410.16 341.003,408.81 338.69,406.43C336.343,404.017 334.813,400.793 334.1,396.76C334.027,396.322 333.644,395.999 333.2,396L229.27,396C228.879,396 228.555,395.686 228.55,395.3L228.51,387.17C228.51,387.168 228.51,387.166 228.51,387.165C228.507,386.803 228.808,386.503 229.175,386.5C229.177,386.5 229.178,386.5 229.18,386.5L333.01,386.5C333.012,386.5 333.013,386.5 333.015,386.5C333.624,386.497 334.123,386.056 334.12,385.524C334.12,385.523 334.12,385.521 334.12,385.52L334.07,381.79C334.07,381.527 333.781,381.31 333.43,381.31L219.26,381.25C218.841,381.25 218.495,381.601 218.49,382.03L218.45,393.43C218.45,393.746 218.288,394.042 218.02,394.21L198.48,406.11C198.026,406.39 197.746,406.878 197.74,407.4L197.57,446.91C197.57,446.912 197.57,446.914 197.57,446.916C197.568,447.371 197.936,447.748 198.386,447.75C198.387,447.75 198.389,447.75 198.39,447.75L374.18,447.75C374.63,447.75 375,447.38 375,446.93L375,407.4C375,407.004 374.795,406.636 374.46,406.43Z" style="fill:white;fill-rule:nonzero;"/>
    </g>
</svg>
